<svg width="1872" height="361" viewBox="0 0 1872 361" fill="none" xmlns="http://www.w3.org/2000/svg">
<path d="M1871.22 182.865C1871.22 287.864 1836.78 357.365 1742.9 357.365C1649.03 357.365 1615 286.868 1615 182.865C1615 78.8617 1649.03 15 1742.9 15C1836.78 15 1871.22 78.8617 1871.22 182.865ZM1690.43 186.182C1690.43 234.95 1696.99 314.569 1742.9 314.569C1791.28 314.569 1795.79 234.95 1795.79 186.182C1795.79 137.415 1791.28 57.7956 1744.13 57.7956C1696.99 57.7956 1690.43 137.415 1690.43 186.182Z" fill="#7F9E67"/>
<path d="M1556.83 350.896C1542.08 350.896 1531.83 350.896 1512.15 352.389C1517.89 293.669 1518.3 259.333 1518.3 184.192C1518.3 135.923 1518.3 53.317 1506 16.4929V15C1533.47 16.4929 1538.8 16.4929 1553.55 16.4929C1565.03 16.4929 1576.51 16.4929 1595.78 15C1590.04 59.7861 1589.63 131.444 1589.63 185.685C1589.63 234.452 1590.86 310.091 1597.83 352.389C1581.02 351.394 1571.59 350.896 1556.83 350.896Z" fill="#7F9E67"/>
<path d="M1478.21 352.389C1449.51 350.896 1434.75 350.896 1390.48 350.896C1360.55 350.896 1347.03 350.896 1313.82 352.389C1322.43 283.717 1320.79 215.542 1320.79 184.192C1320.79 165.78 1322.43 52.3218 1313 15C1336.37 16.4929 1341.29 16.4929 1354.81 16.4929C1368.34 16.4929 1378.59 16.4929 1398.27 15C1391.71 48.3408 1392.12 153.339 1392.12 182.699C1392.12 206.087 1391.3 289.688 1397.86 299.641C1401.14 304.617 1405.24 307.603 1414.26 307.603C1443.36 307.603 1472.47 300.138 1485.18 289.191H1488.05C1483.56 309.952 1480.27 331.07 1478.21 352.389Z" fill="#7F9E67"/>
<path d="M1295.22 189.182C1295.22 294.181 1260.78 360.365 1166.9 360.365C1073.03 360.365 1039 293.186 1039 189.182C1039 85.1792 1073.03 18 1166.9 18C1260.78 18 1295.22 85.1792 1295.22 189.182ZM1114.43 189.182C1114.43 237.95 1120.99 317.569 1166.9 317.569C1215.28 317.569 1219.79 237.95 1219.79 189.182C1219.79 140.415 1215.28 60.7956 1168.13 60.7956C1120.99 60.7956 1114.43 140.415 1114.43 189.182Z" fill="#7F9E67"/>
<path d="M974.996 207.983C988.852 208.248 1014.62 227.224 1025.11 229.264C1017.53 217.088 1018.03 188.005 1018.03 184.515C1018.03 181.025 1026.5 142.635 1027.35 141.766C1002.34 145.083 973.629 165.187 974.996 165.187C974.996 123.884 975.405 83.5768 977.865 60.1885C996.366 60.1897 1014.83 62.0818 1033.07 65.8448C1044.71 45.5749 1072.54 22.7389 1072.82 22.8115C1073.32 22.2298 1080.79 17.2745 1081.36 17.258C1033.07 16.6777 985.232 17.2579 985.232 17.2579C957.294 16.9284 919.407 18.757 895 17.3929L896.214 20.4122C902.689 33.2089 903.609 120.401 903.609 187.083C903.609 268.195 901.97 308.503 896.23 354.782C910.989 353.786 924.517 353.289 939.275 353.289C954.033 353.289 969.202 353.289 983.96 354.782C976.635 328.905 974.586 258.243 974.996 207.983Z" fill="#7F9E67"/>
<path d="M771.588 18.4929C740.841 18.4929 735.922 18.4929 665 17V17.6801C685.498 27.6326 694.708 46.1441 698.357 64.523C711.296 61.7107 724.416 60.2953 737.562 60.2933C738.791 79.203 738.791 152.354 738.791 183.206C738.791 211.571 737.562 305.124 731.822 354.389C754.78 352.896 757.649 352.896 775.277 352.896C792.495 352.896 794.545 353.394 817.502 354.389C809.713 319.058 810.123 211.571 810.123 183.206C810.123 149.866 809.303 75.222 811.353 60.2933C843.739 60.2933 867.106 68.2552 881.864 77.7101H884.297C886.045 57.2276 889.06 36.9337 893.316 17C828.161 18.4929 806.023 18.4929 771.588 18.4929Z" fill="#7F9E67"/>
<path d="M659.086 353.509C646.377 353.509 641.048 353.509 616.861 355C612.655 326.169 607.182 297.63 600.463 269.507C588.165 219.305 578.736 200.914 546.35 205.885C546.35 282.431 551.679 337.106 554.959 355C531.592 353.509 522.573 353.509 509.865 353.509C495.516 353.509 493.876 353.509 469.28 355C475.019 303.307 475.019 218.808 475.019 190.476C475.019 162.145 477.069 62.7345 466 19.9882V18C507.405 19.4912 516.424 19.4911 529.132 19.4911C541.431 19.4911 562.748 18 609.892 18C670.154 18 681.633 62.7345 681.633 94.0486C681.633 152.701 643.508 178.547 618.091 183.021V184.015C654.576 182.524 661.545 224.276 676.714 274.975C679.583 284.916 693.111 333.13 705 351.521L706.5 354C681.903 352.509 670.564 353.509 659.086 353.509ZM607.842 103.493C607.842 77.646 598.413 57.267 573.407 57.267C560.698 57.267 556.189 57.267 548.81 58.2611C548.4 68.6991 546.76 96.5339 546.76 107.469C546.76 123.872 546.35 150.215 546.35 163.636C551.269 164.133 559.878 164.63 563.978 164.63C586.525 164.63 607.842 153.198 607.842 103.493Z" fill="#7F9E67"/>
<path d="M320.098 17C279.951 17 250.748 29.2913 230.469 51.4853C237.849 65.4851 241.525 83.6982 241.525 106.224C241.525 165.391 220.453 198.583 193 214.772C198.657 303.482 234.487 359.348 320.085 359.348C413.963 359.348 448.399 293.165 448.399 188.166C448.413 84.1792 413.977 17 320.098 17ZM320.098 316.569C274.184 316.569 267.625 236.95 267.625 188.182C267.625 139.415 274.184 59.7956 321.328 59.7956C368.473 59.7956 372.982 139.415 372.982 188.182C372.982 236.95 368.473 316.569 320.098 316.569Z" fill="#7F9E67"/>
<path d="M98.2042 217.501L104.589 181.871C130.893 191.506 153.738 177.819 154.314 108.441C154.717 59.8759 134.899 51.2863 115.822 51.128C107.405 50.929 98.9864 51.5218 90.6401 52.9013C89.5692 84.1147 87.4918 138.778 87.1724 177.266C86.6295 242.68 88.1242 307.119 93.8753 347.806C74.4049 346.157 65.8812 346.086 51.2692 345.965C37.063 345.847 35.0336 345.83 9.0443 347.101C15.6098 289.667 16.2926 207.405 16.527 179.158C16.6874 159.831 18.5193 36.9394 9.38125 13.0751L9.39771 11.0928C48.3467 13.3984 51.192 12.9265 65.3982 13.0444C92.4575 13.269 123.453 12.0394 149.836 12.2584C203.007 12.6997 229.147 42.1567 228.645 102.615C227.831 217.09 148.813 233.284 98.2042 217.501Z" fill="#7F9E67"/>
</svg>
